# xmcd
#
# Track frame offsets: 
#        150
#        16587
#        40112
#        54697
#        67625
#        87692
#        103435
#        115905
#        129767
#        143027
#        163080
#        175607
#        190159
#        205280
#
# Disc length: 2926 seconds
#
# Revision: 0
# Processed by: cddbd v1.4PL0 Copyright (c) Steve Scherf et al.
# Submitted via: ExactAudioCopy v0.90b4
#
DISCID=b90b6c0e
DTITLE=Angélica - Angélica 98
DYEAR=1998
DGENRE=Country
TTITLE0=PALAVRINHAS MÁGICAS
TTITLE1=NÃO CHORE ASSIM
TTITLE2=O SOL TAMBÉM É MEU
TTITLE3=CAIXINHA DE SURPRESA
TTITLE4=NA HORA DE DORMIR
TTITLE5=BALANÇO DO AMOR
TTITLE6=PENSE NISSO
TTITLE7=MEU SEGREDO
TTITLE8=GINÁSTICA
TTITLE9=MENINO DO CIRCO - BEER BARREL POLKA (Música Incidental)
TTITLE10=AMIGOS
TTITLE11=TUDO TEM SUA HORA
TTITLE12=AMOR DE FADA
TTITLE13=BOLA DO GOL
EXTD=
EXTT0=
EXTT1=
EXTT2=
EXTT3=
EXTT4=
EXTT5=
EXTT6=
EXTT7=
EXTT8=
EXTT9=
EXTT10=
EXTT11=
EXTT12=
EXTT13=
PLAYORDER=
